<?xml version="1.0" encoding="UTF-8"?>
<svg xmlns="http://www.w3.org/2000/svg" xmlns:xlink="http://www.w3.org/1999/xlink" width="622.73pt" height="275pt" viewBox="0 0 622.73 275" version="1.1">
<g id="surface1">
<path style=" stroke:none;fill-rule:nonzero;fill:rgb(100%,100%,100%);fill-opacity:1;" d="M 0 275 L 622.726563 275 L 622.726563 0 L 0 0 Z M 0 275 "/>
<path style=" stroke:none;fill-rule:nonzero;fill:rgb(100%,90.19928%,0%);fill-opacity:1;" d="M 17.554688 232.453125 L 603.121094 232.453125 L 603.121094 193.835938 L 17.554688 193.835938 Z M 17.554688 232.453125 "/>
<path style=" stroke:none;fill-rule:nonzero;fill:rgb(100%,90.19928%,0%);fill-opacity:1;" d="M 351.828125 45.164063 L 358.371094 45.164063 L 358.371094 51.679688 L 365.777344 51.679688 L 365.777344 45.164063 L 372.664063 45.164063 L 372.664063 51.679688 L 380.929688 51.679688 L 380.929688 45.164063 L 388.679688 45.164063 L 388.679688 51.679688 L 396.085938 51.679688 L 396.085938 45.164063 L 404.867188 45.164063 L 404.867188 58.511719 L 400.90625 66.429688 L 400.90625 110.683594 L 410.546875 110.683594 L 410.546875 116.28125 L 416.058594 116.28125 L 416.058594 110.683594 L 426.90625 110.683594 L 426.90625 116.28125 L 432.414063 116.28125 L 432.414063 110.683594 L 442.0625 110.683594 L 442.0625 97.253906 L 433.449219 86.921875 L 433.449219 72.890625 L 441.714844 72.890625 L 441.714844 81.183594 L 453.769531 81.183594 L 453.769531 72.890625 L 461.691406 72.890625 L 461.691406 81.183594 L 471.679688 81.183594 L 471.679688 72.890625 L 480.117188 72.890625 L 480.117188 81.183594 L 492.171875 81.183594 L 492.171875 72.890625 L 501.984375 72.890625 L 501.984375 87.265625 L 494.410156 97.425781 L 494.410156 110.683594 L 503.019531 110.683594 L 503.019531 115.765625 L 508.355469 115.765625 L 508.355469 110.683594 L 518.34375 110.683594 L 518.34375 115.765625 L 524.886719 115.765625 L 524.886719 110.683594 L 533.496094 110.683594 L 533.496094 65.914063 L 530.226563 57.992188 L 530.226563 44.992188 L 536.253906 44.992188 L 536.253906 51.277344 L 544.171875 51.277344 L 544.171875 44.992188 L 551.75 44.992188 L 551.75 51.277344 L 558.980469 51.277344 L 558.980469 44.992188 L 567.078125 44.992188 L 567.078125 51.277344 L 574.652344 51.277344 L 574.652344 44.992188 L 582.746094 44.992188 L 582.746094 57.992188 L 579.644531 66.257813 L 579.644531 175.933594 L 582.917969 175.933594 L 582.917969 184.652344 L 589.980469 184.652344 L 589.980469 193.855469 L 346.316406 193.855469 L 346.316406 184.652344 L 353.199219 184.652344 L 353.199219 175.933594 L 355.40625 175.933594 L 355.40625 66.273438 L 351.789063 58.320313 "/>
<path style="fill:none;stroke-width:9.14;stroke-linecap:butt;stroke-linejoin:miter;stroke:rgb(2.398682%,30.198669%,63.09967%);stroke-opacity:1;stroke-miterlimit:4;" d="M 3518.28125 2298.359375 L 3583.710938 2298.359375 L 3583.710938 2233.203125 L 3657.773438 2233.203125 L 3657.773438 2298.359375 L 3726.640625 2298.359375 L 3726.640625 2233.203125 L 3809.296875 2233.203125 L 3809.296875 2298.359375 L 3886.796875 2298.359375 L 3886.796875 2233.203125 L 3960.859375 2233.203125 L 3960.859375 2298.359375 L 4048.671875 2298.359375 L 4048.671875 2164.882813 L 4009.0625 2085.703125 L 4009.0625 1643.164063 L 4105.46875 1643.164063 L 4105.46875 1587.1875 L 4160.585938 1587.1875 L 4160.585938 1643.164063 L 4269.0625 1643.164063 L 4269.0625 1587.1875 L 4324.140625 1587.1875 L 4324.140625 1643.164063 L 4420.625 1643.164063 L 4420.625 1777.460938 L 4334.492188 1880.78125 L 4334.492188 2021.09375 L 4417.148438 2021.09375 L 4417.148438 1938.164063 L 4537.695313 1938.164063 L 4537.695313 2021.09375 L 4616.914063 2021.09375 L 4616.914063 1938.164063 L 4716.796875 1938.164063 L 4716.796875 2021.09375 L 4801.171875 2021.09375 L 4801.171875 1938.164063 L 4921.71875 1938.164063 L 4921.71875 2021.09375 L 5019.84375 2021.09375 L 5019.84375 1877.34375 L 4944.101563 1775.742188 L 4944.101563 1643.164063 L 5030.195313 1643.164063 L 5030.195313 1592.34375 L 5083.554688 1592.34375 L 5083.554688 1643.164063 L 5183.4375 1643.164063 L 5183.4375 1592.34375 L 5248.867188 1592.34375 L 5248.867188 1643.164063 L 5334.960938 1643.164063 L 5334.960938 2090.859375 L 5302.265625 2170.078125 L 5302.265625 2300.078125 L 5362.539063 2300.078125 L 5362.539063 2237.226563 L 5441.71875 2237.226563 L 5441.71875 2300.078125 L 5517.5 2300.078125 L 5517.5 2237.226563 L 5589.804688 2237.226563 L 5589.804688 2300.078125 L 5670.78125 2300.078125 L 5670.78125 2237.226563 L 5746.523438 2237.226563 L 5746.523438 2300.078125 L 5827.460938 2300.078125 L 5827.460938 2170.078125 L 5796.445313 2087.421875 L 5796.445313 990.664063 L 5829.179688 990.664063 L 5829.179688 903.476563 L 5899.804688 903.476563 L 5899.804688 811.445313 L 3463.164063 811.445313 L 3463.164063 903.476563 L 3531.992188 903.476563 L 3531.992188 990.664063 L 3554.0625 990.664063 L 3554.0625 2087.265625 L 3517.890625 2166.796875 Z M 3518.28125 2298.359375 " transform="matrix(0.1,0,0,-0.1,0,275)"/>
<path style="fill:none;stroke-width:9.14;stroke-linecap:butt;stroke-linejoin:miter;stroke:rgb(2.398682%,30.198669%,63.09967%);stroke-opacity:1;stroke-miterlimit:4;" d="M 3517.890625 2166.796875 L 4048.671875 2166.796875 " transform="matrix(0.1,0,0,-0.1,0,275)"/>
<path style="fill:none;stroke-width:9.14;stroke-linecap:butt;stroke-linejoin:miter;stroke:rgb(2.398682%,30.198669%,63.09967%);stroke-opacity:1;stroke-miterlimit:4;" d="M 4009.0625 2085.703125 L 3554.0625 2085.703125 " transform="matrix(0.1,0,0,-0.1,0,275)"/>
<path style="fill:none;stroke-width:9.14;stroke-linecap:butt;stroke-linejoin:miter;stroke:rgb(2.398682%,30.198669%,63.09967%);stroke-opacity:1;stroke-miterlimit:4;" d="M 5304.296875 2166.796875 L 5829.609375 2166.796875 " transform="matrix(0.1,0,0,-0.1,0,275)"/>
<path style="fill:none;stroke-width:9.14;stroke-linecap:butt;stroke-linejoin:miter;stroke:rgb(2.398682%,30.198669%,63.09967%);stroke-opacity:1;stroke-miterlimit:4;" d="M 5796.445313 2085.703125 L 5334.960938 2085.703125 " transform="matrix(0.1,0,0,-0.1,0,275)"/>
<path style="fill:none;stroke-width:9.14;stroke-linecap:butt;stroke-linejoin:miter;stroke:rgb(2.398682%,30.198669%,63.09967%);stroke-opacity:1;stroke-miterlimit:4;" d="M 3554.0625 990.664063 L 5796.445313 990.664063 " transform="matrix(0.1,0,0,-0.1,0,275)"/>
<path style="fill:none;stroke-width:9.14;stroke-linecap:butt;stroke-linejoin:miter;stroke:rgb(2.398682%,30.198669%,63.09967%);stroke-opacity:1;stroke-miterlimit:4;" d="M 3531.992188 903.476563 L 5829.179688 903.476563 " transform="matrix(0.1,0,0,-0.1,0,275)"/>
<path style="fill:none;stroke-width:9.14;stroke-linecap:butt;stroke-linejoin:miter;stroke:rgb(2.398682%,30.198669%,63.09967%);stroke-opacity:1;stroke-miterlimit:4;" d="M 4334.492188 1880.78125 L 5019.84375 1880.78125 " transform="matrix(0.1,0,0,-0.1,0,275)"/>
<path style="fill:none;stroke-width:9.14;stroke-linecap:butt;stroke-linejoin:miter;stroke:rgb(2.398682%,30.198669%,63.09967%);stroke-opacity:1;stroke-miterlimit:4;" d="M 4420.625 1777.460938 L 4944.101563 1777.460938 " transform="matrix(0.1,0,0,-0.1,0,275)"/>
<path style="fill:none;stroke-width:9.14;stroke-linecap:butt;stroke-linejoin:miter;stroke:rgb(2.398682%,30.198669%,63.09967%);stroke-opacity:1;stroke-miterlimit:4;" d="M 3687.851563 2085.703125 L 3687.851563 990.664063 " transform="matrix(0.1,0,0,-0.1,0,275)"/>
<path style="fill:none;stroke-width:9.14;stroke-linecap:butt;stroke-linejoin:miter;stroke:rgb(2.398682%,30.198669%,63.09967%);stroke-opacity:1;stroke-miterlimit:4;" d="M 3880.742188 2085.703125 L 3880.742188 990.664063 " transform="matrix(0.1,0,0,-0.1,0,275)"/>
<path style="fill:none;stroke-width:9.14;stroke-linecap:butt;stroke-linejoin:miter;stroke:rgb(2.398682%,30.198669%,63.09967%);stroke-opacity:1;stroke-miterlimit:4;" d="M 4009.0625 1643.164063 L 4009.0625 990.664063 " transform="matrix(0.1,0,0,-0.1,0,275)"/>
<path style="fill:none;stroke-width:9.14;stroke-linecap:butt;stroke-linejoin:miter;stroke:rgb(2.398682%,30.198669%,63.09967%);stroke-opacity:1;stroke-miterlimit:4;" d="M 4420.625 1643.164063 L 4420.625 1315.46875 " transform="matrix(0.1,0,0,-0.1,0,275)"/>
<path style="fill:none;stroke-width:9.14;stroke-linecap:butt;stroke-linejoin:miter;stroke:rgb(2.398682%,30.198669%,63.09967%);stroke-opacity:1;stroke-miterlimit:4;" d="M 4420.625 1235.46875 L 4420.625 990.664063 " transform="matrix(0.1,0,0,-0.1,0,275)"/>
<path style="fill:none;stroke-width:9.14;stroke-linecap:butt;stroke-linejoin:miter;stroke:rgb(2.398682%,30.198669%,63.09967%);stroke-opacity:1;stroke-miterlimit:4;" d="M 4944.101563 1643.164063 L 4944.101563 1315.46875 " transform="matrix(0.1,0,0,-0.1,0,275)"/>
<path style="fill:none;stroke-width:9.14;stroke-linecap:butt;stroke-linejoin:miter;stroke:rgb(2.398682%,30.198669%,63.09967%);stroke-opacity:1;stroke-miterlimit:4;" d="M 4944.101563 1235.46875 L 4944.101563 990.664063 " transform="matrix(0.1,0,0,-0.1,0,275)"/>
<path style="fill:none;stroke-width:9.14;stroke-linecap:butt;stroke-linejoin:miter;stroke:rgb(2.398682%,30.198669%,63.09967%);stroke-opacity:1;stroke-miterlimit:4;" d="M 4944.101563 1403.476563 L 4682.851563 1594.492188 L 4420.625 1403.476563 " transform="matrix(0.1,0,0,-0.1,0,275)"/>
<path style="fill:none;stroke-width:9.14;stroke-linecap:butt;stroke-linejoin:miter;stroke:rgb(2.398682%,30.198669%,63.09967%);stroke-opacity:1;stroke-miterlimit:4;" d="M 5334.960938 1643.164063 L 5334.960938 990.664063 " transform="matrix(0.1,0,0,-0.1,0,275)"/>
<path style="fill:none;stroke-width:9.14;stroke-linecap:butt;stroke-linejoin:miter;stroke:rgb(2.398682%,30.198669%,63.09967%);stroke-opacity:1;stroke-miterlimit:4;" d="M 4944.101563 1544.53125 L 5334.960938 1544.53125 " transform="matrix(0.1,0,0,-0.1,0,275)"/>
<path style="fill:none;stroke-width:9.14;stroke-linecap:butt;stroke-linejoin:miter;stroke:rgb(2.398682%,30.198669%,63.09967%);stroke-opacity:1;stroke-miterlimit:4;" d="M 5334.960938 1513.90625 L 4944.101563 1513.90625 " transform="matrix(0.1,0,0,-0.1,0,275)"/>
<path style=" stroke:none;fill-rule:nonzero;fill:rgb(2.398682%,30.198669%,63.09967%);fill-opacity:1;" d="M 494.40625 130.058594 L 533.496094 130.058594 L 533.496094 126.671875 L 494.40625 126.671875 Z M 494.40625 130.058594 "/>
<path style="fill:none;stroke-width:9.14;stroke-linecap:butt;stroke-linejoin:miter;stroke:rgb(2.398682%,30.198669%,63.09967%);stroke-opacity:1;stroke-miterlimit:4;" d="M 4009.0625 1544.53125 L 4420.234375 1544.53125 " transform="matrix(0.1,0,0,-0.1,0,275)"/>
<path style="fill:none;stroke-width:9.14;stroke-linecap:butt;stroke-linejoin:miter;stroke:rgb(2.398682%,30.198669%,63.09967%);stroke-opacity:1;stroke-miterlimit:4;" d="M 4420.234375 1513.90625 L 4009.0625 1513.90625 " transform="matrix(0.1,0,0,-0.1,0,275)"/>
<path style=" stroke:none;fill-rule:nonzero;fill:rgb(2.398682%,30.198669%,63.09967%);fill-opacity:1;" d="M 400.90625 130.058594 L 442.023438 130.058594 L 442.023438 126.671875 L 400.90625 126.671875 Z M 400.90625 130.058594 "/>
<path style=" stroke:none;fill-rule:nonzero;fill:rgb(2.398682%,30.198669%,63.09967%);fill-opacity:1;" d="M 502.945313 163.105469 L 509.394531 163.105469 L 509.394531 138.277344 L 502.945313 138.277344 Z M 502.945313 163.105469 "/>
<path style=" stroke:none;fill-rule:nonzero;fill:rgb(2.398682%,30.198669%,63.09967%);fill-opacity:1;" d="M 517.777344 163.105469 L 524.226563 163.105469 L 524.226563 138.277344 L 517.777344 138.277344 Z M 517.777344 163.105469 "/>
<path style=" stroke:none;fill-rule:nonzero;fill:rgb(2.398682%,30.198669%,63.09967%);fill-opacity:1;" d="M 537.445313 98.945313 L 543.894531 98.945313 L 543.894531 72.347656 L 537.445313 72.347656 Z M 537.445313 98.945313 "/>
<path style=" stroke:none;fill-rule:nonzero;fill:rgb(2.398682%,30.198669%,63.09967%);fill-opacity:1;" d="M 553.242188 98.945313 L 559.691406 98.945313 L 559.691406 72.347656 L 553.242188 72.347656 Z M 553.242188 98.945313 "/>
<path style=" stroke:none;fill-rule:nonzero;fill:rgb(2.398682%,30.198669%,63.09967%);fill-opacity:1;" d="M 569.363281 98.945313 L 575.8125 98.945313 L 575.8125 72.347656 L 569.363281 72.347656 Z M 569.363281 98.945313 "/>
<path style=" stroke:none;fill-rule:nonzero;fill:rgb(2.398682%,30.198669%,63.09967%);fill-opacity:1;" d="M 537.445313 161.011719 L 543.894531 161.011719 L 543.894531 134.410156 L 537.445313 134.410156 Z M 537.445313 161.011719 "/>
<path style=" stroke:none;fill-rule:nonzero;fill:rgb(2.398682%,30.198669%,63.09967%);fill-opacity:1;" d="M 553.242188 161.011719 L 559.691406 161.011719 L 559.691406 134.410156 L 553.242188 134.410156 Z M 553.242188 161.011719 "/>
<path style=" stroke:none;fill-rule:nonzero;fill:rgb(2.398682%,30.198669%,63.09967%);fill-opacity:1;" d="M 569.363281 161.011719 L 575.8125 161.011719 L 575.8125 134.410156 L 569.363281 134.410156 Z M 569.363281 161.011719 "/>
<path style=" stroke:none;fill-rule:nonzero;fill:rgb(2.398682%,30.198669%,63.09967%);fill-opacity:1;" d="M 425.730469 163.105469 L 432.175781 163.105469 L 432.175781 138.277344 L 425.730469 138.277344 Z M 425.730469 163.105469 "/>
<path style=" stroke:none;fill-rule:nonzero;fill:rgb(2.398682%,30.198669%,63.09967%);fill-opacity:1;" d="M 410.898438 163.105469 L 417.347656 163.105469 L 417.347656 138.277344 L 410.898438 138.277344 Z M 410.898438 163.105469 "/>
<path style=" stroke:none;fill-rule:nonzero;fill:rgb(2.398682%,30.198669%,63.09967%);fill-opacity:1;" d="M 391.230469 98.945313 L 397.679688 98.945313 L 397.679688 72.347656 L 391.230469 72.347656 Z M 391.230469 98.945313 "/>
<path style=" stroke:none;fill-rule:nonzero;fill:rgb(2.398682%,30.198669%,63.09967%);fill-opacity:1;" d="M 375.433594 98.945313 L 381.878906 98.945313 L 381.878906 72.347656 L 375.433594 72.347656 Z M 375.433594 98.945313 "/>
<path style=" stroke:none;fill-rule:nonzero;fill:rgb(2.398682%,30.198669%,63.09967%);fill-opacity:1;" d="M 359.3125 98.945313 L 365.761719 98.945313 L 365.761719 72.347656 L 359.3125 72.347656 Z M 359.3125 98.945313 "/>
<path style=" stroke:none;fill-rule:nonzero;fill:rgb(2.398682%,30.198669%,63.09967%);fill-opacity:1;" d="M 391.230469 161.011719 L 397.679688 161.011719 L 397.679688 134.410156 L 391.230469 134.410156 Z M 391.230469 161.011719 "/>
<path style=" stroke:none;fill-rule:nonzero;fill:rgb(2.398682%,30.198669%,63.09967%);fill-opacity:1;" d="M 375.433594 161.011719 L 381.878906 161.011719 L 381.878906 134.410156 L 375.433594 134.410156 Z M 375.433594 161.011719 "/>
<path style=" stroke:none;fill-rule:nonzero;fill:rgb(2.398682%,30.198669%,63.09967%);fill-opacity:1;" d="M 359.3125 161.011719 L 365.761719 161.011719 L 365.761719 134.410156 L 359.3125 134.410156 Z M 359.3125 161.011719 "/>
<path style="fill:none;stroke-width:9.14;stroke-linecap:butt;stroke-linejoin:miter;stroke:rgb(2.398682%,30.198669%,63.09967%);stroke-opacity:1;stroke-miterlimit:4;" d="M 5472.773438 2085.703125 L 5472.773438 990.664063 " transform="matrix(0.1,0,0,-0.1,0,275)"/>
<path style="fill:none;stroke-width:9.14;stroke-linecap:butt;stroke-linejoin:miter;stroke:rgb(2.398682%,30.198669%,63.09967%);stroke-opacity:1;stroke-miterlimit:4;" d="M 5663.007813 2085.703125 L 5663.007813 990.664063 " transform="matrix(0.1,0,0,-0.1,0,275)"/>
<path style=" stroke:none;fill-rule:nonzero;fill:rgb(2.398682%,30.198669%,63.09967%);fill-opacity:1;" d="M 450.554688 175.933594 L 450.554688 138.925781 L 468.609375 126.027344 L 486.019531 138.925781 L 486.019531 175.933594 "/>
<path style="fill:none;stroke-width:9.14;stroke-linecap:butt;stroke-linejoin:miter;stroke:rgb(2.398682%,30.198669%,63.09967%);stroke-opacity:1;stroke-miterlimit:4;" d="M 4192.8125 861.015625 L 5160.039063 861.015625 L 5160.039063 811.445313 L 4192.8125 811.445313 Z M 4192.8125 861.015625 " transform="matrix(0.1,0,0,-0.1,0,275)"/>
<path style="fill:none;stroke-width:9.14;stroke-linecap:butt;stroke-linejoin:miter;stroke:rgb(2.398682%,30.198669%,63.09967%);stroke-opacity:1;stroke-miterlimit:4;" d="M 4274.492188 903.476563 L 5093.398438 903.476563 L 5093.398438 861.015625 L 4274.492188 861.015625 Z M 4274.492188 903.476563 " transform="matrix(0.1,0,0,-0.1,0,275)"/>
<path style="fill:none;stroke-width:9.14;stroke-linecap:butt;stroke-linejoin:miter;stroke:rgb(2.398682%,30.198669%,63.09967%);stroke-opacity:1;stroke-miterlimit:4;" d="M 4323.90625 937.34375 L 5043.984375 937.34375 L 5043.984375 903.476563 L 4323.90625 903.476563 Z M 4323.90625 937.34375 " transform="matrix(0.1,0,0,-0.1,0,275)"/>
<path style="fill:none;stroke-width:9.14;stroke-linecap:butt;stroke-linejoin:miter;stroke:rgb(2.398682%,30.198669%,63.09967%);stroke-opacity:1;stroke-miterlimit:4;" d="M 4373.359375 971.171875 L 4994.53125 971.171875 L 4994.53125 937.34375 L 4373.359375 937.34375 Z M 4373.359375 971.171875 " transform="matrix(0.1,0,0,-0.1,0,275)"/>
<path style=" stroke:none;fill-rule:nonzero;fill:rgb(2.398682%,30.198669%,63.09967%);fill-opacity:1;" d="M 29.320313 82.84375 L 124.996094 82.84375 L 124.996094 106.539063 L 65.109375 106.539063 L 65.109375 124.195313 L 120.644531 124.195313 L 120.644531 146.84375 L 65.109375 146.84375 L 65.109375 168.6875 L 126.691406 168.6875 L 126.691406 193.835938 L 29.320313 193.835938 "/>
<path style=" stroke:none;fill-rule:nonzero;fill:rgb(2.398682%,30.198669%,63.09967%);fill-opacity:1;" d="M 145.507813 82.84375 L 192.554688 82.84375 L 210.550781 150.390625 L 228.535156 82.84375 L 275.4375 82.84375 L 275.4375 193.835938 L 246.179688 193.835938 L 246.179688 109.222656 L 223.65625 193.835938 L 197.210938 193.835938 L 174.765625 109.222656 L 174.765625 193.835938 L 145.507813 193.835938 "/>
<path style=" stroke:none;fill-rule:nonzero;fill:rgb(2.398682%,30.198669%,63.09967%);fill-opacity:1;" d="M 299.550781 193.835938 L 335.339844 193.835938 L 335.339844 82.84375 L 299.550781 82.84375 Z M 299.550781 193.835938 "/>
<path style=" stroke:none;fill-rule:nonzero;fill:rgb(100%,90.19928%,0%);fill-opacity:1;" d="M 438.953125 151.65625 L 452.496094 151.65625 L 452.496094 143.453125 L 438.953125 143.453125 Z M 438.953125 151.65625 "/>
<path style="fill:none;stroke-width:9.14;stroke-linecap:butt;stroke-linejoin:miter;stroke:rgb(2.398682%,30.198669%,63.09967%);stroke-opacity:1;stroke-miterlimit:4;" d="M 4524.960938 1233.4375 L 4389.53125 1233.4375 L 4389.53125 1315.46875 L 4524.960938 1315.46875 Z M 4524.960938 1233.4375 " transform="matrix(0.1,0,0,-0.1,0,275)"/>
<path style="fill-rule:nonzero;fill:rgb(100%,90.19928%,0%);fill-opacity:1;stroke-width:9.14;stroke-linecap:butt;stroke-linejoin:miter;stroke:rgb(2.398682%,30.198669%,63.09967%);stroke-opacity:1;stroke-miterlimit:4;" d="M 4839.726563 1233.4375 L 4975.15625 1233.4375 L 4975.15625 1315.46875 L 4839.726563 1315.46875 Z M 4839.726563 1233.4375 " transform="matrix(0.1,0,0,-0.1,0,275)"/>
<path style=" stroke:none;fill-rule:nonzero;fill:rgb(2.398682%,30.198669%,63.09967%);fill-opacity:1;" d="M 30.246094 222.511719 L 30.246094 205.304688 L 52.574219 205.304688 L 52.574219 208.214844 L 36.332031 208.214844 L 36.332031 212.039063 L 51.445313 212.039063 L 51.445313 214.945313 L 36.332031 214.945313 L 36.332031 219.601563 L 53.140625 219.601563 L 53.140625 222.511719 "/>
<path style=" stroke:none;fill-rule:nonzero;fill:rgb(2.398682%,30.198669%,63.09967%);fill-opacity:1;" d="M 56.242188 219.019531 L 62.046875 218.519531 C 62.289063 219.160156 62.789063 219.644531 63.535156 219.976563 C 64.285156 220.308594 65.335938 220.472656 66.683594 220.472656 C 68.167969 220.472656 69.285156 220.316406 70.035156 219.996094 C 70.539063 219.773438 70.789063 219.476563 70.789063 219.105469 C 70.789063 218.851563 70.65625 218.640625 70.382813 218.472656 C 70.09375 218.3125 69.453125 218.167969 68.457031 218.03125 C 63.8125 217.4375 60.871094 216.894531 59.628906 216.410156 C 57.910156 215.734375 57.046875 214.792969 57.046875 213.59375 C 57.046875 212.507813 57.792969 211.597656 59.285156 210.859375 C 60.777344 210.121094 63.089844 209.753906 66.222656 209.753906 C 69.207031 209.753906 71.421875 210.023438 72.871094 210.570313 C 74.324219 211.117188 75.320313 211.925781 75.871094 212.992188 L 70.429688 213.574219 C 70.195313 213.09375 69.753906 212.722656 69.105469 212.464844 C 68.457031 212.207031 67.53125 212.078125 66.324219 212.078125 C 64.808594 212.078125 63.71875 212.203125 63.066406 212.445313 C 62.625 212.621094 62.410156 212.847656 62.410156 213.128906 C 62.410156 213.363281 62.597656 213.566406 62.980469 213.734375 C 63.5 213.957031 65.296875 214.269531 68.363281 214.675781 C 71.429688 215.082031 73.574219 215.574219 74.789063 216.15625 C 75.992188 216.75 76.59375 217.574219 76.59375 218.632813 C 76.59375 219.78125 75.761719 220.773438 74.09375 221.601563 C 72.421875 222.429688 69.953125 222.84375 66.683594 222.84375 C 63.71875 222.84375 61.367188 222.5 59.636719 221.8125 C 57.90625 221.128906 56.777344 220.195313 56.242188 219.019531 "/>
<path style=" stroke:none;fill-rule:nonzero;fill:rgb(2.398682%,30.198669%,63.09967%);fill-opacity:1;" d="M 100.703125 213.699219 L 95.019531 214.28125 C 94.828125 213.636719 94.390625 213.148438 93.710938 212.820313 C 93.027344 212.492188 92.144531 212.328125 91.058594 212.328125 C 89.617188 212.328125 88.464844 212.613281 87.601563 213.1875 C 86.746094 213.757813 86.316406 214.714844 86.316406 216.058594 C 86.316406 217.546875 86.75 218.601563 87.621094 219.21875 C 88.492188 219.832031 89.660156 220.140625 91.125 220.140625 C 92.222656 220.140625 93.121094 219.960938 93.820313 219.597656 C 94.519531 219.234375 95.015625 218.613281 95.300781 217.730469 L 100.984375 218.269531 C 100.394531 219.777344 99.265625 220.917969 97.59375 221.6875 C 95.921875 222.457031 93.679688 222.84375 90.871094 222.84375 C 87.679688 222.84375 85.136719 222.265625 83.238281 221.109375 C 81.339844 219.953125 80.390625 218.351563 80.390625 216.308594 C 80.390625 214.242188 81.34375 212.632813 83.246094 211.480469 C 85.152344 210.328125 87.730469 209.753906 90.976563 209.753906 C 93.636719 209.753906 95.75 210.078125 97.320313 210.726563 C 98.890625 211.378906 100.019531 212.367188 100.703125 213.699219 "/>
<path style=" stroke:none;fill-rule:nonzero;fill:rgb(2.398682%,30.198669%,63.09967%);fill-opacity:1;" d="M 119.492188 222.511719 L 119.492188 220.644531 C 118.695313 221.308594 117.648438 221.84375 116.351563 222.242188 C 115.054688 222.640625 113.6875 222.84375 112.246094 222.84375 C 110.777344 222.84375 109.460938 222.65625 108.296875 222.289063 C 107.128906 221.917969 106.285156 221.402344 105.765625 220.734375 C 105.242188 220.066406 104.980469 219.140625 104.980469 217.964844 L 104.980469 210.042969 L 110.746094 210.042969 L 110.746094 215.785156 C 110.746094 217.542969 110.851563 218.621094 111.0625 219.019531 C 111.277344 219.414063 111.667969 219.726563 112.230469 219.960938 C 112.796875 220.191406 113.511719 220.308594 114.378906 220.308594 C 115.371094 220.308594 116.257813 220.152344 117.042969 219.84375 C 117.828125 219.53125 118.363281 219.148438 118.652344 218.6875 C 118.941406 218.230469 119.089844 217.105469 119.089844 215.316406 L 119.089844 210.042969 L 124.851563 210.042969 L 124.851563 222.511719 "/>
<path style=" stroke:none;fill-rule:nonzero;fill:rgb(2.398682%,30.198669%,63.09967%);fill-opacity:1;" d="M 143.808594 215.238281 C 143.765625 214.273438 143.332031 213.539063 142.511719 213.039063 C 141.6875 212.539063 140.6875 212.285156 139.503906 212.285156 C 138.242188 212.285156 137.199219 212.550781 136.378906 213.082031 C 135.554688 213.609375 135.148438 214.328125 135.164063 215.238281 Z M 143.445313 218.601563 L 149.207031 219.144531 C 148.464844 220.347656 147.300781 221.265625 145.703125 221.898438 C 144.105469 222.527344 142.113281 222.84375 139.714844 222.84375 C 135.921875 222.84375 133.113281 222.132813 131.292969 220.707031 C 129.855469 219.566406 129.136719 218.128906 129.136719 216.390625 C 129.136719 214.316406 130.082031 212.6875 131.972656 211.515625 C 133.863281 210.339844 136.253906 209.753906 139.148438 209.753906 C 142.394531 209.753906 144.957031 210.367188 146.835938 211.601563 C 148.714844 212.835938 149.613281 214.726563 149.53125 217.273438 L 135.0625 217.273438 C 135.101563 218.257813 135.566406 219.023438 136.453125 219.570313 C 137.34375 220.117188 138.449219 220.390625 139.773438 220.390625 C 140.675781 220.390625 141.433594 220.25 142.050781 219.96875 C 142.664063 219.683594 143.128906 219.230469 143.445313 218.601563 "/>
<path style=" stroke:none;fill-rule:nonzero;fill:rgb(2.398682%,30.198669%,63.09967%);fill-opacity:1;" d="M 154.210938 222.511719 L 159.976563 222.511719 L 159.976563 205.304688 L 154.210938 205.304688 Z M 154.210938 222.511719 "/>
<path style=" stroke:none;fill-rule:nonzero;fill:rgb(2.398682%,30.198669%,63.09967%);fill-opacity:1;" d="M 178.003906 216.566406 C 177.261719 216.710938 176.085938 216.878906 174.476563 217.070313 C 172.867188 217.269531 171.8125 217.460938 171.320313 217.648438 C 170.5625 217.953125 170.183594 218.339844 170.183594 218.8125 C 170.183594 219.273438 170.488281 219.671875 171.09375 220.011719 C 171.699219 220.347656 172.46875 220.515625 173.402344 220.515625 C 174.449219 220.515625 175.445313 220.320313 176.394531 219.929688 C 177.097656 219.632813 177.558594 219.265625 177.777344 218.835938 C 177.929688 218.554688 178.003906 218.015625 178.003906 217.226563 Z M 170.226563 213.867188 L 165.027344 213.328125 C 165.617188 212.109375 166.628906 211.210938 168.070313 210.628906 C 169.511719 210.042969 171.652344 209.753906 174.488281 209.753906 C 177.066406 209.753906 178.988281 209.925781 180.25 210.273438 C 181.511719 210.621094 182.398438 211.066406 182.914063 211.601563 C 183.429688 212.140625 183.6875 213.125 183.6875 214.558594 L 183.605469 218.410156 C 183.605469 219.507813 183.699219 220.316406 183.886719 220.835938 C 184.074219 221.355469 184.421875 221.914063 184.933594 222.511719 L 179.214844 222.511719 C 179.0625 222.296875 178.875 221.980469 178.65625 221.558594 C 178.5625 221.367188 178.492188 221.242188 178.453125 221.179688 C 177.464844 221.734375 176.40625 222.148438 175.285156 222.425781 C 174.160156 222.703125 172.960938 222.84375 171.683594 222.84375 C 169.433594 222.84375 167.660156 222.492188 166.367188 221.796875 C 165.070313 221.097656 164.421875 220.214844 164.421875 219.148438 C 164.421875 218.441406 164.714844 217.8125 165.308594 217.261719 C 165.894531 216.707031 166.722656 216.28125 167.785156 215.988281 C 168.851563 215.695313 170.382813 215.4375 172.386719 215.21875 C 175.089844 214.929688 176.960938 214.65625 178.003906 214.40625 L 178.003906 214.074219 C 178.003906 213.429688 177.726563 212.972656 177.175781 212.699219 C 176.621094 212.421875 175.582031 212.285156 174.050781 212.285156 C 173.019531 212.285156 172.210938 212.402344 171.632813 212.636719 C 171.054688 212.871094 170.585938 213.28125 170.226563 213.867188 "/>
<path style=" stroke:none;fill-rule:nonzero;fill:rgb(2.398682%,30.198669%,63.09967%);fill-opacity:1;" d="M 201.035156 222.511719 L 201.035156 205.304688 L 210.171875 205.304688 L 215.605469 217.039063 L 221.019531 205.304688 L 230.136719 205.304688 L 230.136719 222.511719 L 224.492188 222.511719 L 224.472656 208.96875 L 218.503906 222.511719 L 212.644531 222.511719 L 206.699219 208.96875 L 206.679688 222.511719 "/>
<path style=" stroke:none;fill-rule:nonzero;fill:rgb(2.398682%,30.198669%,63.09967%);fill-opacity:1;" d="M 236.121094 210.042969 L 241.882813 210.042969 L 241.882813 222.511719 L 236.121094 222.511719 Z M 236.121094 205.304688 L 241.882813 205.304688 L 241.882813 208.339844 L 236.121094 208.339844 Z M 236.121094 205.304688 "/>
<path style=" stroke:none;fill-rule:nonzero;fill:rgb(2.398682%,30.198669%,63.09967%);fill-opacity:1;" d="M 247.820313 222.511719 L 253.582031 222.511719 L 253.582031 205.304688 L 247.820313 205.304688 Z M 247.820313 222.511719 "/>
<path style=" stroke:none;fill-rule:nonzero;fill:rgb(2.398682%,30.198669%,63.09967%);fill-opacity:1;" d="M 259.519531 210.042969 L 265.285156 210.042969 L 265.285156 222.511719 L 259.519531 222.511719 Z M 259.519531 205.304688 L 265.285156 205.304688 L 265.285156 208.339844 L 259.519531 208.339844 Z M 259.519531 205.304688 "/>
<path style=" stroke:none;fill-rule:nonzero;fill:rgb(2.398682%,30.198669%,63.09967%);fill-opacity:1;" d="M 281.257813 210.042969 L 281.257813 212.660156 L 277.308594 212.660156 L 277.308594 217.722656 C 277.308594 218.746094 277.347656 219.347656 277.421875 219.515625 C 277.496094 219.683594 277.667969 219.824219 277.9375 219.933594 C 278.203125 220.042969 278.53125 220.097656 278.914063 220.097656 C 279.449219 220.097656 280.222656 219.992188 281.238281 219.78125 L 281.742188 222.347656 C 280.402344 222.679688 278.882813 222.84375 277.1875 222.84375 C 276.148438 222.84375 275.210938 222.742188 274.378906 222.539063 C 273.542969 222.339844 272.929688 222.082031 272.539063 221.761719 C 272.152344 221.441406 271.878906 221.011719 271.730469 220.46875 C 271.605469 220.082031 271.546875 219.304688 271.546875 218.128906 L 271.546875 212.660156 L 268.886719 212.660156 L 268.886719 210.042969 L 271.546875 210.042969 L 271.546875 207.550781 L 277.308594 205.597656 L 277.308594 210.042969 "/>
<path style=" stroke:none;fill-rule:nonzero;fill:rgb(2.398682%,30.198669%,63.09967%);fill-opacity:1;" d="M 297.339844 216.566406 C 296.597656 216.710938 295.421875 216.878906 293.8125 217.070313 C 292.203125 217.269531 291.148438 217.460938 290.65625 217.648438 C 289.898438 217.953125 289.519531 218.339844 289.519531 218.8125 C 289.519531 219.273438 289.824219 219.671875 290.429688 220.011719 C 291.03125 220.347656 291.804688 220.515625 292.738281 220.515625 C 293.785156 220.515625 294.78125 220.320313 295.730469 219.929688 C 296.429688 219.632813 296.890625 219.265625 297.113281 218.835938 C 297.265625 218.554688 297.339844 218.015625 297.339844 217.226563 Z M 289.5625 213.867188 L 284.363281 213.328125 C 284.953125 212.109375 285.964844 211.210938 287.40625 210.628906 C 288.847656 210.042969 290.988281 209.753906 293.824219 209.753906 C 296.402344 209.753906 298.324219 209.925781 299.585938 210.273438 C 300.847656 210.621094 301.734375 211.066406 302.25 211.601563 C 302.765625 212.140625 303.019531 213.125 303.019531 214.558594 L 302.941406 218.410156 C 302.941406 219.507813 303.035156 220.316406 303.222656 220.835938 C 303.40625 221.355469 303.757813 221.914063 304.269531 222.511719 L 298.546875 222.511719 C 298.394531 222.296875 298.210938 221.980469 297.992188 221.558594 C 297.894531 221.367188 297.828125 221.242188 297.785156 221.179688 C 296.796875 221.734375 295.742188 222.148438 294.617188 222.425781 C 293.492188 222.703125 292.292969 222.84375 291.019531 222.84375 C 288.769531 222.84375 286.996094 222.492188 285.703125 221.796875 C 284.40625 221.097656 283.757813 220.214844 283.757813 219.148438 C 283.757813 218.441406 284.050781 217.8125 284.640625 217.261719 C 285.230469 216.707031 286.058594 216.28125 287.121094 215.988281 C 288.183594 215.695313 289.71875 215.4375 291.722656 215.21875 C 294.421875 214.929688 296.296875 214.65625 297.339844 214.40625 L 297.339844 214.074219 C 297.339844 213.429688 297.0625 212.972656 296.511719 212.699219 C 295.960938 212.421875 294.917969 212.285156 293.386719 212.285156 C 292.355469 212.285156 291.546875 212.402344 290.96875 212.636719 C 290.390625 212.871094 289.917969 213.28125 289.5625 213.867188 "/>
<path style=" stroke:none;fill-rule:nonzero;fill:rgb(2.398682%,30.198669%,63.09967%);fill-opacity:1;" d="M 314.230469 222.511719 L 308.46875 222.511719 L 308.46875 210.042969 L 313.828125 210.042969 L 313.828125 211.8125 C 314.746094 210.976563 315.574219 210.421875 316.308594 210.15625 C 317.042969 209.886719 317.875 209.753906 318.808594 209.753906 C 320.125 209.753906 321.394531 209.960938 322.617188 210.371094 L 320.824219 213.242188 C 319.847656 212.882813 318.941406 212.703125 318.105469 212.703125 C 317.292969 212.703125 316.605469 212.832031 316.042969 213.085938 C 315.480469 213.339844 315.039063 213.800781 314.714844 214.46875 C 314.394531 215.132813 314.230469 216.527344 314.230469 218.652344 "/>
<path style=" stroke:none;fill-rule:nonzero;fill:rgb(2.398682%,30.198669%,63.09967%);fill-opacity:1;" d="M 341.4375 216.023438 C 341.4375 217.363281 341.757813 218.328125 342.40625 218.925781 C 343.335938 219.792969 344.640625 220.222656 346.3125 220.222656 C 347.644531 220.222656 348.777344 219.898438 349.710938 219.253906 C 350.644531 218.601563 351.109375 217.632813 351.109375 216.34375 C 351.109375 214.90625 350.65625 213.867188 349.75 213.234375 C 348.847656 212.601563 347.6875 212.285156 346.273438 212.285156 C 344.902344 212.285156 343.753906 212.597656 342.828125 213.222656 C 341.898438 213.847656 341.4375 214.785156 341.4375 216.023438 M 356.832031 222.511719 L 351.472656 222.511719 L 351.472656 220.679688 C 350.578125 221.390625 349.527344 221.929688 348.3125 222.292969 C 347.101563 222.660156 345.878906 222.84375 344.644531 222.84375 C 342.136719 222.84375 339.984375 222.261719 338.195313 221.101563 C 336.40625 219.941406 335.511719 218.328125 335.511719 216.25 C 335.511719 214.128906 336.382813 212.515625 338.125 211.410156 C 339.867188 210.304688 342.070313 209.753906 344.730469 209.753906 C 347.171875 209.753906 349.285156 210.332031 351.070313 211.488281 L 351.070313 205.304688 L 356.832031 205.304688 "/>
<path style=" stroke:none;fill-rule:nonzero;fill:rgb(2.398682%,30.198669%,63.09967%);fill-opacity:1;" d="M 375.503906 215.238281 C 375.464844 214.273438 375.03125 213.539063 374.210938 213.039063 C 373.386719 212.539063 372.386719 212.285156 371.203125 212.285156 C 369.941406 212.285156 368.898438 212.550781 368.078125 213.082031 C 367.253906 213.609375 366.847656 214.328125 366.863281 215.238281 Z M 375.144531 218.601563 L 380.90625 219.144531 C 380.164063 220.347656 378.996094 221.265625 377.402344 221.898438 C 375.808594 222.527344 373.8125 222.84375 371.414063 222.84375 C 367.621094 222.84375 364.8125 222.132813 362.992188 220.707031 C 361.554688 219.566406 360.835938 218.128906 360.835938 216.390625 C 360.835938 214.316406 361.78125 212.6875 363.671875 211.515625 C 365.5625 210.339844 367.953125 209.753906 370.847656 209.753906 C 374.09375 209.753906 376.65625 210.367188 378.535156 211.601563 C 380.414063 212.835938 381.3125 214.726563 381.230469 217.273438 L 366.761719 217.273438 C 366.800781 218.257813 367.265625 219.023438 368.152344 219.570313 C 369.039063 220.117188 370.148438 220.390625 371.472656 220.390625 C 372.375 220.390625 373.132813 220.25 373.746094 219.96875 C 374.363281 219.683594 374.828125 219.230469 375.144531 218.601563 "/>
<path style=" stroke:none;fill-rule:nonzero;fill:rgb(2.398682%,30.198669%,63.09967%);fill-opacity:1;" d="M 397.492188 222.511719 L 403.574219 222.511719 L 403.574219 205.304688 L 397.492188 205.304688 Z M 397.492188 222.511719 "/>
<path style=" stroke:none;fill-rule:nonzero;fill:rgb(2.398682%,30.198669%,63.09967%);fill-opacity:1;" d="M 429.222656 222.511719 L 423.460938 222.511719 L 423.460938 216.148438 C 423.460938 214.804688 423.335938 213.933594 423.085938 213.535156 C 422.839844 213.140625 422.4375 212.835938 421.878906 212.613281 C 421.320313 212.394531 420.652344 212.285156 419.867188 212.285156 C 418.863281 212.285156 417.960938 212.441406 417.160156 212.757813 C 416.363281 213.070313 415.816406 213.484375 415.519531 214 C 415.222656 214.515625 415.078125 215.472656 415.078125 216.863281 L 415.078125 222.511719 L 409.3125 222.511719 L 409.3125 210.042969 L 414.671875 210.042969 L 414.671875 211.871094 C 416.578125 210.460938 418.980469 209.753906 421.875 209.753906 C 423.152344 209.753906 424.316406 209.882813 425.371094 210.144531 C 426.429688 210.40625 427.230469 210.742188 427.769531 211.148438 C 428.3125 211.558594 428.691406 212.019531 428.902344 212.535156 C 429.117188 213.054688 429.222656 213.792969 429.222656 214.757813 "/>
<path style=" stroke:none;fill-rule:nonzero;fill:rgb(2.398682%,30.198669%,63.09967%);fill-opacity:1;" d="M 439.714844 216.019531 C 439.714844 217.347656 440.160156 218.3125 441.054688 218.929688 C 441.953125 219.542969 443.054688 219.851563 444.367188 219.851563 C 445.773438 219.851563 446.960938 219.535156 447.933594 218.90625 C 448.902344 218.273438 449.386719 217.339844 449.386719 216.101563 C 449.386719 214.8125 448.921875 213.851563 447.992188 213.226563 C 447.0625 212.601563 445.890625 212.285156 444.46875 212.285156 C 443.089844 212.285156 441.953125 212.59375 441.054688 213.210938 C 440.160156 213.824219 439.714844 214.761719 439.714844 216.019531 M 434.515625 223.339844 L 441.125 223.757813 C 441.234375 224.207031 441.488281 224.515625 441.886719 224.683594 C 442.4375 224.921875 443.300781 225.042969 444.484375 225.042969 C 445.996094 225.042969 447.128906 224.914063 447.882813 224.65625 C 448.390625 224.480469 448.777344 224.203125 449.039063 223.820313 C 449.214844 223.542969 449.304688 223.035156 449.304688 222.296875 L 449.328125 220.472656 C 447.585938 221.832031 445.398438 222.511719 442.769531 222.511719 C 439.835938 222.511719 437.515625 221.800781 435.804688 220.382813 C 434.460938 219.265625 433.789063 217.871094 433.789063 216.203125 C 433.789063 214.109375 434.671875 212.511719 436.429688 211.40625 C 438.1875 210.304688 440.378906 209.753906 442.996094 209.753906 C 445.691406 209.753906 447.914063 210.433594 449.667969 211.789063 L 449.667969 210.042969 L 455.070313 210.042969 L 455.070313 221.238281 C 455.070313 222.710938 454.855469 223.808594 454.429688 224.539063 C 454.003906 225.265625 453.410156 225.839844 452.640625 226.253906 C 451.871094 226.667969 450.847656 226.992188 449.566406 227.226563 C 448.28125 227.464844 446.660156 227.582031 444.699219 227.582031 C 440.996094 227.582031 438.371094 227.21875 436.820313 226.492188 C 435.269531 225.769531 434.496094 224.851563 434.496094 223.738281 C 434.496094 223.632813 434.5 223.496094 434.515625 223.339844 "/>
<path style=" stroke:none;fill-rule:nonzero;fill:rgb(2.398682%,30.198669%,63.09967%);fill-opacity:1;" d="M 473.78125 215.238281 C 473.742188 214.273438 473.308594 213.539063 472.488281 213.039063 C 471.664063 212.539063 470.660156 212.285156 469.480469 212.285156 C 468.21875 212.285156 467.175781 212.550781 466.355469 213.082031 C 465.53125 213.609375 465.125 214.328125 465.140625 215.238281 Z M 473.421875 218.601563 L 479.183594 219.144531 C 478.445313 220.347656 477.277344 221.265625 475.679688 221.898438 C 474.085938 222.527344 472.089844 222.84375 469.691406 222.84375 C 465.898438 222.84375 463.089844 222.132813 461.269531 220.707031 C 459.828125 219.566406 459.113281 218.128906 459.113281 216.390625 C 459.113281 214.316406 460.058594 212.6875 461.949219 211.515625 C 463.839844 210.339844 466.230469 209.753906 469.121094 209.753906 C 472.371094 209.753906 474.933594 210.367188 476.8125 211.601563 C 478.6875 212.835938 479.585938 214.726563 479.503906 217.273438 L 465.035156 217.273438 C 465.078125 218.257813 465.542969 219.023438 466.429688 219.570313 C 467.320313 220.117188 468.425781 220.390625 469.75 220.390625 C 470.652344 220.390625 471.410156 220.25 472.027344 219.96875 C 472.640625 219.683594 473.105469 219.230469 473.421875 218.601563 "/>
<path style=" stroke:none;fill-rule:nonzero;fill:rgb(2.398682%,30.198669%,63.09967%);fill-opacity:1;" d="M 504.097656 222.511719 L 498.335938 222.511719 L 498.335938 216.148438 C 498.335938 214.804688 498.210938 213.933594 497.960938 213.535156 C 497.714844 213.140625 497.3125 212.835938 496.753906 212.613281 C 496.195313 212.394531 495.527344 212.285156 494.742188 212.285156 C 493.738281 212.285156 492.835938 212.441406 492.035156 212.757813 C 491.238281 213.070313 490.691406 213.484375 490.394531 214 C 490.097656 214.515625 489.953125 215.472656 489.953125 216.863281 L 489.953125 222.511719 L 484.1875 222.511719 L 484.1875 210.042969 L 489.546875 210.042969 L 489.546875 211.871094 C 491.453125 210.460938 493.855469 209.753906 496.75 209.753906 C 498.027344 209.753906 499.191406 209.882813 500.246094 210.144531 C 501.304688 210.40625 502.105469 210.742188 502.644531 211.148438 C 503.1875 211.558594 503.5625 212.019531 503.777344 212.535156 C 503.992188 213.054688 504.097656 213.792969 504.097656 214.757813 "/>
<path style=" stroke:none;fill-rule:nonzero;fill:rgb(2.398682%,30.198669%,63.09967%);fill-opacity:1;" d="M 509.914063 210.042969 L 515.679688 210.042969 L 515.679688 222.511719 L 509.914063 222.511719 Z M 509.914063 205.304688 L 515.679688 205.304688 L 515.679688 208.339844 L 509.914063 208.339844 Z M 509.914063 205.304688 "/>
<path style=" stroke:none;fill-rule:nonzero;fill:rgb(2.398682%,30.198669%,63.09967%);fill-opacity:1;" d="M 534.632813 215.238281 C 534.589844 214.273438 534.160156 213.539063 533.335938 213.039063 C 532.511719 212.539063 531.511719 212.285156 530.328125 212.285156 C 529.070313 212.285156 528.027344 212.550781 527.203125 213.082031 C 526.378906 213.609375 525.976563 214.328125 525.992188 215.238281 Z M 534.269531 218.601563 L 540.035156 219.144531 C 539.292969 220.347656 538.125 221.265625 536.53125 221.898438 C 534.933594 222.527344 532.9375 222.84375 530.539063 222.84375 C 526.746094 222.84375 523.941406 222.132813 522.121094 220.707031 C 520.683594 219.566406 519.964844 218.128906 519.964844 216.390625 C 519.964844 214.316406 520.910156 212.6875 522.800781 211.515625 C 524.691406 210.339844 527.082031 209.753906 529.972656 209.753906 C 533.222656 209.753906 535.785156 210.367188 537.660156 211.601563 C 539.539063 212.835938 540.4375 214.726563 540.355469 217.273438 L 525.886719 217.273438 C 525.929688 218.257813 526.394531 219.023438 527.28125 219.570313 C 528.167969 220.117188 529.277344 220.390625 530.601563 220.390625 C 531.503906 220.390625 532.261719 220.25 532.875 219.96875 C 533.492188 219.683594 533.953125 219.230469 534.269531 218.601563 "/>
<path style=" stroke:none;fill-rule:nonzero;fill:rgb(2.398682%,30.198669%,63.09967%);fill-opacity:1;" d="M 550.601563 222.511719 L 544.835938 222.511719 L 544.835938 210.042969 L 550.195313 210.042969 L 550.195313 211.8125 C 551.117188 210.976563 551.941406 210.421875 552.675781 210.15625 C 553.410156 209.886719 554.242188 209.753906 555.175781 209.753906 C 556.492188 209.753906 557.761719 209.960938 558.980469 210.371094 L 557.1875 213.242188 C 556.214844 212.882813 555.308594 212.703125 554.472656 212.703125 C 553.660156 212.703125 552.976563 212.832031 552.410156 213.085938 C 551.847656 213.339844 551.40625 213.800781 551.085938 214.46875 C 550.761719 215.132813 550.601563 216.527344 550.601563 218.652344 "/>
<path style=" stroke:none;fill-rule:nonzero;fill:rgb(2.398682%,30.198669%,63.09967%);fill-opacity:1;" d="M 561.429688 210.042969 L 567.191406 210.042969 L 567.191406 222.511719 L 561.429688 222.511719 Z M 560.460938 208.421875 L 563.324219 204.929688 L 569.769531 204.929688 L 564.089844 208.421875 Z M 560.460938 208.421875 "/>
<path style=" stroke:none;fill-rule:nonzero;fill:rgb(2.398682%,30.198669%,63.09967%);fill-opacity:1;" d="M 585.21875 216.566406 C 584.476563 216.710938 583.300781 216.878906 581.691406 217.070313 C 580.082031 217.269531 579.03125 217.460938 578.535156 217.648438 C 577.78125 217.953125 577.402344 218.339844 577.402344 218.8125 C 577.402344 219.273438 577.703125 219.671875 578.308594 220.011719 C 578.914063 220.347656 579.683594 220.515625 580.621094 220.515625 C 581.664063 220.515625 582.660156 220.320313 583.609375 219.929688 C 584.3125 219.632813 584.773438 219.265625 584.992188 218.835938 C 585.144531 218.554688 585.21875 218.015625 585.21875 217.226563 Z M 577.441406 213.867188 L 572.242188 213.328125 C 572.832031 212.109375 573.847656 211.210938 575.285156 210.628906 C 576.726563 210.042969 578.867188 209.753906 581.703125 209.753906 C 584.285156 209.753906 586.203125 209.925781 587.464844 210.273438 C 588.730469 210.621094 589.617188 211.066406 590.128906 211.601563 C 590.644531 212.140625 590.902344 213.125 590.902344 214.558594 L 590.820313 218.410156 C 590.820313 219.507813 590.914063 220.316406 591.101563 220.835938 C 591.289063 221.355469 591.640625 221.914063 592.152344 222.511719 L 586.429688 222.511719 C 586.277344 222.296875 586.09375 221.980469 585.871094 221.558594 C 585.777344 221.367188 585.707031 221.242188 585.667969 221.179688 C 584.679688 221.734375 583.621094 222.148438 582.496094 222.425781 C 581.375 222.703125 580.175781 222.84375 578.902344 222.84375 C 576.652344 222.84375 574.878906 222.492188 573.582031 221.796875 C 572.285156 221.097656 571.636719 220.214844 571.636719 219.148438 C 571.636719 218.441406 571.933594 217.8125 572.523438 217.261719 C 573.113281 216.707031 573.9375 216.28125 575.003906 215.988281 C 576.066406 215.695313 577.597656 215.4375 579.601563 215.21875 C 582.304688 214.929688 584.175781 214.65625 585.21875 214.40625 L 585.21875 214.074219 C 585.21875 213.429688 584.945313 212.972656 584.394531 212.699219 C 583.839844 212.421875 582.796875 212.285156 581.269531 212.285156 C 580.234375 212.285156 579.429688 212.402344 578.847656 212.636719 C 578.269531 212.871094 577.800781 213.28125 577.441406 213.867188 "/>
</g>
</svg>
